<svg xmlns="http://www.w3.org/2000/svg" width="1316.207" height="248.749">
  <defs>
    <linearGradient id="b" x1="0" x2="1" y1="0" y2="0" gradientTransform="matrix(173.74866 0 0 -173.74866 12.814 126.28)" gradientUnits="userSpaceOnUse" spreadMethod="pad">
      <stop offset="0" stop-color="#29a3dc"/>
      <stop offset="1" stop-color="#86c440"/>
    </linearGradient>
    <linearGradient id="c" x1="0" x2="1" y1="0" y2="0" gradientTransform="rotate(180 93.281 63.14) scale(173.74866)" gradientUnits="userSpaceOnUse" spreadMethod="pad">
      <stop offset="0" stop-color="#29a3dc"/>
      <stop offset="1" stop-color="#86c440"/>
    </linearGradient>
    <linearGradient id="d" x1="0" x2="1" y1="0" y2="0" gradientTransform="matrix(173.74597 0 0 -173.74597 0 60.28)" gradientUnits="userSpaceOnUse" spreadMethod="pad">
      <stop offset="0" stop-color="#29a3dc"/>
      <stop offset="1" stop-color="#86c440"/>
    </linearGradient>
    <linearGradient id="e" x1="0" x2="1" y1="0" y2="0" gradientTransform="rotate(180 86.873 30.14) scale(173.74599)" gradientUnits="userSpaceOnUse" spreadMethod="pad">
      <stop offset="0" stop-color="#29a3dc"/>
      <stop offset="1" stop-color="#86c440"/>
    </linearGradient>
    <clipPath id="a" clipPathUnits="userSpaceOnUse">
      <path d="M0 186.562h987.155V0H0Z"/>
    </clipPath>
  </defs>
  <g clip-path="url(#a)" transform="matrix(1.33333 0 0 -1.33333 0 248.75)">
    <path fill="#29a3dc" d="M298.71 49.33c-3.011-4.822-7.431-8.639-13.254-11.448-5.824-2.81-12.801-4.217-20.935-4.217-12.35 0-22.517 2.962-30.5 8.885-7.982 5.923-12.326 14.358-13.028 25.305h31.479c.3-3.718 1.454-6.478 3.464-8.284 2.007-1.808 4.467-2.712 7.38-2.712 2.61 0 4.643.652 6.1 1.96 1.455 1.302 2.184 3.161 2.184 5.571 0 3.213-1.456 5.7-4.368 7.456-2.914 1.754-7.531 3.69-13.856 5.798-6.728 2.308-12.275 4.57-16.643 6.777-4.368 2.208-8.133 5.521-11.296 9.942-3.163 4.416-4.744 10.09-4.744 17.02 0 6.625 1.706 12.324 5.12 17.094 3.412 4.767 8.08 8.381 14.007 10.843 5.924 2.46 12.652 3.69 20.183 3.69 12.249 0 22.013-2.888 29.294-8.66 7.279-5.774 11.27-13.882 11.974-24.323h-31.78c-.402 3.313-1.43 5.773-3.087 7.38-1.656 1.604-3.841 2.41-6.552 2.41-2.311 0-4.118-.605-5.422-1.809-1.306-1.205-1.958-3.013-1.958-5.422 0-3.012 1.43-5.373 4.292-7.079 2.862-1.709 7.355-3.614 13.48-5.723 6.726-2.409 12.299-4.769 16.719-7.079 4.417-2.31 8.23-5.674 11.447-10.09 3.212-4.42 4.819-10.143 4.819-17.17 0-5.927-1.506-11.295-4.52-16.116M375.946 139.145c5.471-2.576 9.613-6.074 12.426-10.496 2.81-4.425 4.217-9.404 4.217-14.943 0-6.708-1.709-12.08-5.12-16.112-3.416-4.033-7.482-6.584-12.2-7.654v-.582c12.851-4.471 19.28-12.734 19.28-24.786 0-6.123-1.458-11.517-4.37-16.183-2.913-4.664-7.104-8.285-12.576-10.861-5.473-2.576-12.025-3.863-19.655-3.863-12.65 0-22.617 2.963-29.897 8.894-7.28 5.926-11.122 15.11-11.522 27.555h28.918c-.203-8.456 3.563-12.686 11.296-12.686 2.711 0 4.895.85 6.552 2.552 1.656 1.7 2.485 3.912 2.485 6.633 0 3.5-1.23 6.123-3.69 7.874-2.46 1.75-6.4 2.625-11.824 2.625h-5.27v23.18h5.12c3.917 0 7.178.657 9.79 1.968 2.61 1.312 3.916 3.959 3.916 7.945 0 3.013-.753 5.273-2.259 6.779-1.506 1.506-3.516 2.26-6.025 2.26-2.812 0-4.947-1.045-6.4-3.133-1.458-2.092-2.285-4.74-2.485-7.947h-28.768c.4 11.275 3.89 19.9 10.468 25.878 6.575 5.978 15.837 8.968 27.788 8.968 7.73 0 14.331-1.29 19.805-3.865M496.292 33.665h-80.839v28.766h80.839zM593.757 49.33c-3.011-4.822-7.431-8.639-13.254-11.448-5.824-2.81-12.801-4.217-20.935-4.217-12.35 0-22.517 2.962-30.5 8.885-7.982 5.923-12.326 14.358-13.028 25.305h31.479c.3-3.718 1.454-6.478 3.464-8.284 2.007-1.808 4.467-2.712 7.38-2.712 2.61 0 4.643.652 6.1 1.96 1.455 1.302 2.184 3.161 2.184 5.571 0 3.213-1.456 5.7-4.368 7.456-2.914 1.754-7.531 3.69-13.856 5.798-6.728 2.308-12.275 4.57-16.643 6.777-4.368 2.208-8.133 5.521-11.296 9.942-3.163 4.416-4.744 10.09-4.744 17.02 0 6.625 1.706 12.324 5.12 17.094 3.412 4.767 8.08 8.381 14.007 10.843 5.924 2.46 12.652 3.69 20.183 3.69 12.249 0 22.013-2.888 29.294-8.66 7.279-5.774 11.27-13.882 11.974-24.323h-31.78c-.402 3.313-1.43 5.773-3.087 7.38-1.657 1.604-3.841 2.41-6.552 2.41-2.311 0-4.118-.605-5.422-1.809-1.306-1.205-1.958-3.013-1.958-5.422 0-3.012 1.43-5.373 4.292-7.079 2.862-1.709 7.355-3.614 13.48-5.723 6.726-2.409 12.299-4.769 16.719-7.079 4.417-2.31 8.23-5.674 11.447-10.09 3.212-4.42 4.819-10.143 4.819-17.17 0-5.927-1.506-11.295-4.52-16.116M691.505 140.3v-23.647h-28.766V33.665h-29.52v82.988h-28.467V140.3ZM734.88 108.295c-4.318-4.872-6.475-11.523-6.475-19.958 0-8.233 2.157-14.81 6.476-19.73 4.316-4.92 10.24-7.38 17.773-7.38 7.428 0 13.303 2.46 17.619 7.38 4.317 4.92 6.479 11.497 6.479 19.73 0 8.435-2.137 15.086-6.402 19.958-4.268 4.87-10.166 7.304-17.696 7.304-7.533 0-13.457-2.435-17.773-7.304m45.258 27.712c8.284-4.668 14.81-11.172 19.58-19.504 4.768-8.335 7.154-17.725 7.154-28.166 0-10.443-2.41-19.83-7.23-28.165-4.818-8.335-11.37-14.834-19.654-19.504-8.284-4.668-17.396-7.003-27.335-7.003-9.942 0-19.08 2.335-27.412 7.003-8.337 4.67-14.913 11.17-19.731 19.504-4.82 8.335-7.23 17.722-7.23 28.165 0 10.441 2.41 19.831 7.23 28.166 4.818 8.332 11.394 14.836 19.73 19.504 8.334 4.668 17.47 7.003 27.413 7.003 10.038 0 19.2-2.335 27.485-7.003M849.795 92.855h14.61c8.23 0 12.351 3.715 12.351 11.146 0 3.515-1.032 6.275-3.089 8.284-2.058 2.007-5.147 3.013-9.262 3.013h-14.61Zm24.55-59.19-21.537 39.31h-3.013v-39.31h-29.67V140.3h46.84c8.533 0 15.788-1.484 21.765-4.443 5.971-2.965 10.466-7.057 13.48-12.275 3.011-5.223 4.516-11.098 4.516-17.622 0-7.434-2.057-13.884-6.175-19.354-4.118-5.475-10.04-9.316-17.773-11.524l24.25-41.417ZM948.147 116.653V99.031h34.49v-22.44h-34.49V57.312h39.009V33.665h-68.68v106.636h68.68v-23.648Z"/>
  </g>
  <path fill="url(#b)" d="M93.281 186.562c-34.304 0-64.263-18.53-80.468-46.112l19.855-19.852c10.423 23.09 33.633 39.171 60.613 39.171 23.266 0 43.695-11.982 55.578-30.082h-30.081l40.828-40.825 22.857-22.863a92.88 92.88 0 0 1 4.099 27.282c0 3.088-.152 6.147-.446 9.159a92.577 92.577 0 0 1-6.955 27.247c-14.186 33.422-47.287 56.875-85.88 56.875z" transform="matrix(1.33333 0 0 -1.33333 0 248.75)"/>
  <path fill="url(#c)" d="m12.813 140.45 19.855-19.852c10.423 23.09 33.633 39.171 60.613 39.171 23.266 0 43.695-11.982 55.578-30.082h-30.081l40.828-40.825 22.857-22.863a92.88 92.88 0 0 1 4.099 27.282c0 3.088-.152 6.147-.446 9.159a92.547 92.547 0 0 1-6.956 27.247c-14.185 33.422-47.286 56.875-85.879 56.875-34.304 0-64.263-18.53-80.468-46.112" transform="matrix(1.33333 0 0 -1.33333 0 248.75)"/>
  <path fill="url(#d)" d="M0 93.281c0-12.918 2.629-25.22 7.375-36.408C21.56 23.448 54.682 0 93.281 0c34.305 0 64.26 18.528 80.465 46.112l-19.851 19.852c-10.426-23.09-33.633-39.171-60.614-39.171-23.276 0-43.746 11.969-55.626 30.08h30.13L26.956 97.701 4.102 120.559A92.837 92.837 0 0 1 0 93.281" transform="matrix(1.33333 0 0 -1.33333 0 248.75)"/>
  <path fill="url(#e)" d="M0 93.281c0-12.918 2.629-25.22 7.375-36.408C21.56 23.448 54.682 0 93.281 0c34.305 0 64.26 18.528 80.465 46.112l-19.851 19.852c-10.426-23.09-33.633-39.171-60.614-39.171-23.276 0-43.746 11.969-55.626 30.08h30.13L26.956 97.701 4.102 120.559A92.837 92.837 0 0 1 0 93.281" transform="matrix(1.33333 0 0 -1.33333 0 248.75)"/>
</svg>
